<svg xmlns="http://www.w3.org/2000/svg" viewBox="0 0 24 24" width="24" height="24" fill="#464EB8">
  <path d="M16.5 10.5c1.38 0 2.5-1.12 2.5-2.5s-1.12-2.5-2.5-2.5-2.5 1.12-2.5 2.5 1.12 2.5 2.5 2.5zm-5 1c-1.65 0-3-1.35-3-3s1.35-3 3-3 3 1.35 3 3-1.35 3-3 3zm-2.5 3c0-2.21 4.42-3.5 6.5-3.5s6.5 1.29 6.5 3.5v2.5h-13v-2.5zm-3-3.5c-1.38 0-2.5-1.12-2.5-2.5s1.12-2.5 2.5-2.5 2.5 1.12 2.5 2.5-1.12 2.5-2.5 2.5zm-1 3.5c0-.85.45-1.6 1.14-2.07.6-.42 1.33-.78 2.18-1.07-.86.5-1.49 1.26-1.74 2.14v3.5h-3.08v-2.5z"/>
</svg>
